<svg width="11" height="8" viewBox="0 0 11 8" fill="none" xmlns="http://www.w3.org/2000/svg">
<path fill-rule="evenodd" clip-rule="evenodd" d="M0 5.13835C0 4.98693 0.0601511 4.84171 0.167221 4.73464C0.27429 4.62757 0.419508 4.56742 0.570927 4.56742H7.42206C7.87631 4.56742 8.31197 4.38697 8.63318 4.06576C8.95439 3.74455 9.13484 3.3089 9.13484 2.85464V0.570927C9.13484 0.419508 9.19499 0.274291 9.30206 0.167221C9.40913 0.0601512 9.55435 0 9.70577 0C9.85719 0 10.0024 0.0601512 10.1095 0.167221C10.2165 0.274291 10.2767 0.419508 10.2767 0.570927V2.85464C10.2767 3.61173 9.97594 4.33782 9.44059 4.87317C8.90524 5.40852 8.17915 5.70927 7.42206 5.70927H0.570927C0.419508 5.70927 0.27429 5.64912 0.167221 5.54205C0.0601511 5.43498 0 5.28977 0 5.13835Z" fill="#989CAC"/>
<path fill-rule="evenodd" clip-rule="evenodd" d="M0.16716 5.54204C0.0601274 5.43497 0 5.28978 0 5.13839C0 4.987 0.0601274 4.84181 0.16716 4.73475L2.45087 2.45104C2.55855 2.34704 2.70277 2.28949 2.85246 2.29079C3.00216 2.29209 3.14535 2.35214 3.25121 2.45799C3.35706 2.56385 3.4171 2.70704 3.41841 2.85674C3.41971 3.00643 3.36216 3.15065 3.25816 3.25833L1.3781 5.13839L3.25816 7.01846C3.31269 7.07112 3.35619 7.13412 3.38611 7.20378C3.41603 7.27343 3.43178 7.34835 3.43244 7.42416C3.4331 7.49997 3.41865 7.57514 3.38994 7.64531C3.36124 7.71547 3.31884 7.77922 3.26524 7.83283C3.21163 7.88643 3.14789 7.92882 3.07772 7.95753C3.00756 7.98624 2.93238 8.00068 2.85657 8.00002C2.78076 7.99937 2.70585 7.98362 2.63619 7.95369C2.56653 7.92377 2.50354 7.88028 2.45087 7.82575L0.16716 5.54204Z" fill="#989CAC"/>
</svg>
