<svg width="239" height="63" viewBox="0 0 239 63" fill="none" xmlns="http://www.w3.org/2000/svg">
<path d="M4.26 48.9C3.42 48.9 3 48.5 3 47.7V15.84C3 15.04 3.4 14.64 4.2 14.64H14.34C15.18 14.64 15.6 15.04 15.6 15.84V22.98H28.56C29.32 22.98 29.7 23.38 29.7 24.18V31.8C29.7 32.64 29.32 33.06 28.56 33.06H15.6V47.64C15.6 48.48 15.22 48.9 14.46 48.9H4.26ZM3 12.84C2.16 12.84 1.74 12.44 1.74 11.64V3C1.74 2.2 2.16 1.8 3 1.8H30.84C31.64 1.8 32.04 2.2 32.04 3V11.58C32.04 12.42 31.64 12.84 30.84 12.84H3ZM48.5672 47.64C48.5672 48.48 48.1672 48.9 47.3672 48.9H37.7672C36.9672 48.9 36.5672 48.48 36.5672 47.64V17.34C36.5672 16.58 36.9672 16.2 37.7672 16.2H47.3072C48.1472 16.2 48.5672 16.58 48.5672 17.34V47.64ZM37.8272 11.7C36.9872 11.7 36.5672 11.3 36.5672 10.5V1.86C36.5672 1.02 36.9872 0.599999 37.8272 0.599999H47.3072C48.1472 0.599999 48.5672 1.02 48.5672 1.86V10.5C48.5672 11.3 48.1472 11.7 47.3072 11.7H37.8272ZM101.063 59.04C101.063 59.88 100.663 60.3 99.863 60.3H90.443C89.643 60.3 89.243 59.88 89.243 59.04V17.34C89.243 16.58 89.643 16.2 90.443 16.2H99.803C100.643 16.2 101.063 16.58 101.063 17.34V18.24C101.903 17.44 102.943 16.86 104.183 16.5C105.463 16.1 106.703 15.9 107.903 15.9C110.023 15.9 111.983 16.24 113.783 16.92C115.583 17.6 117.143 18.62 118.463 19.98C119.783 21.3 120.823 22.96 121.583 24.96C122.343 26.96 122.723 29.26 122.723 31.86V33.06C122.723 35.74 122.303 38.08 121.463 40.08C120.623 42.04 119.423 43.68 117.863 45C116.343 46.32 114.483 47.3 112.283 47.94C110.083 48.58 107.623 48.9 104.903 48.9H101.063V59.04ZM105.263 25.74C104.623 25.74 103.903 25.88 103.103 26.16C102.343 26.4 101.663 26.8 101.063 27.36V39H104.903C106.823 39 108.303 38.48 109.343 37.44C110.423 36.36 110.963 34.64 110.963 32.28C110.963 30 110.483 28.34 109.523 27.3C108.603 26.26 107.183 25.74 105.263 25.74ZM159.965 47.7C159.965 48.5 159.565 48.9 158.765 48.9H149.225C148.385 48.9 147.965 48.5 147.965 47.7V26.76C147.445 26.4 146.905 26.14 146.345 25.98C145.785 25.82 145.245 25.74 144.725 25.74C142.805 25.74 141.305 26.26 140.225 27.3C139.185 28.34 138.665 30 138.665 32.28C138.665 34.64 139.185 36.36 140.225 37.44C141.305 38.48 142.805 39 144.725 39H144.965C145.765 39 146.165 39.42 146.165 40.26V47.7C146.165 48.5 145.765 48.9 144.965 48.9H144.725C142.005 48.9 139.545 48.58 137.345 47.94C135.145 47.3 133.265 46.32 131.705 45C130.185 43.68 129.005 42.04 128.165 40.08C127.325 38.08 126.905 35.74 126.905 33.06V31.86C126.905 29.26 127.285 26.96 128.045 24.96C128.805 22.96 129.845 21.3 131.165 19.98C132.485 18.62 134.045 17.6 135.845 16.92C137.685 16.24 139.665 15.9 141.785 15.9C142.825 15.9 143.885 16.06 144.965 16.38C146.085 16.66 147.085 17.12 147.965 17.76V17.4C147.965 16.6 148.385 16.2 149.225 16.2H158.765C159.565 16.2 159.965 16.6 159.965 17.4V47.7ZM176.936 35.34C176.936 36.62 177.316 37.74 178.076 38.7C178.876 39.62 180.156 40.08 181.916 40.08C183.596 40.08 184.776 39.78 185.456 39.18C186.176 38.54 186.536 37.72 186.536 36.72C186.536 35.92 186.956 35.52 187.796 35.52H197.216C198.016 35.52 198.416 35.92 198.416 36.72V37.56C198.416 39.6 198.016 41.4 197.216 42.96C196.416 44.48 195.276 45.76 193.796 46.8C192.356 47.8 190.616 48.54 188.576 49.02C186.576 49.54 184.356 49.8 181.916 49.8C179.436 49.8 177.156 49.52 175.076 48.96C172.996 48.44 171.176 47.6 169.616 46.44C168.096 45.28 166.896 43.78 166.016 41.94C165.176 40.06 164.756 37.8 164.756 35.16V29.94C164.756 27.3 165.176 25.06 166.016 23.22C166.896 21.34 168.096 19.82 169.616 18.66C171.176 17.5 172.996 16.66 175.076 16.14C177.156 15.58 179.436 15.3 181.916 15.3C184.356 15.3 186.576 15.58 188.576 16.14C190.616 16.7 192.356 17.5 193.796 18.54C195.276 19.54 196.416 20.76 197.216 22.2C198.016 23.64 198.416 25.22 198.416 26.94V27.78C198.416 28.58 198.016 28.98 197.216 28.98H187.796C186.956 28.98 186.536 28.58 186.536 27.78C186.536 27.1 186.196 26.48 185.516 25.92C184.836 25.32 183.656 25.02 181.976 25.02C180.216 25.02 178.936 25.5 178.136 26.46C177.336 27.38 176.936 28.48 176.936 29.76V35.34ZM214.188 35.04V35.94C214.188 37.46 214.628 38.68 215.508 39.6C216.388 40.52 217.788 40.98 219.708 40.98C221.108 40.98 222.208 40.8 223.008 40.44C223.808 40.08 224.268 39.44 224.388 38.52C224.468 38.12 224.588 37.82 224.748 37.62C224.908 37.42 225.208 37.32 225.648 37.32H234.468C235.268 37.32 235.668 37.72 235.668 38.52V39.36C235.668 40.92 235.268 42.34 234.468 43.62C233.708 44.9 232.608 46 231.168 46.92C229.768 47.84 228.068 48.54 226.068 49.02C224.068 49.54 221.848 49.8 219.408 49.8C217.088 49.8 214.908 49.52 212.868 48.96C210.828 48.44 209.048 47.6 207.528 46.44C206.008 45.28 204.808 43.78 203.928 41.94C203.048 40.06 202.608 37.8 202.608 35.16V29.94C202.608 27.3 203.028 25.06 203.868 23.22C204.748 21.34 205.948 19.82 207.468 18.66C209.028 17.5 210.848 16.66 212.928 16.14C215.008 15.58 217.288 15.3 219.768 15.3C222.208 15.3 224.428 15.58 226.428 16.14C228.468 16.7 230.208 17.52 231.648 18.6C233.128 19.64 234.268 20.92 235.068 22.44C235.868 23.96 236.268 25.66 236.268 27.54V33.78C236.268 34.62 235.848 35.04 235.008 35.04H214.188ZM219.708 23.82C218.108 23.82 216.788 24.26 215.748 25.14C214.748 26.02 214.228 27.22 214.188 28.74H224.988C224.948 27.22 224.468 26.02 223.548 25.14C222.628 24.26 221.348 23.82 219.708 23.82Z" fill="white"/>
<path d="M53.0695 17.64C52.8295 17.24 52.7895 16.9 52.9495 16.62C53.1095 16.34 53.4295 16.2 53.9095 16.2H64.0495C64.7295 16.2 65.2695 16.52 65.6695 17.16L85.4095 47.46C85.6495 47.86 85.6695 48.2 85.4695 48.48C85.2695 48.76 84.9295 48.9 84.4495 48.9H74.3095C73.9095 48.9 73.6095 48.82 73.4095 48.66C73.2095 48.5 73.0095 48.26 72.8095 47.94L53.0695 17.64ZM72.8095 17.16C73.2095 16.52 73.7495 16.2 74.4295 16.2H84.2095C84.6895 16.2 85.0095 16.34 85.1695 16.62C85.3695 16.9 85.3295 17.24 85.0495 17.64L77.6695 29.76C77.4295 30.12 77.1495 30.32 76.8295 30.36C76.5495 30.4 76.2695 30.22 75.9895 29.82L71.2495 22.5C71.0495 22.18 70.9295 21.88 70.8895 21.6C70.8495 21.28 70.9295 20.96 71.1295 20.64L72.8095 17.16ZM64.7695 47.94C64.3695 48.58 63.8295 48.9 63.1495 48.9H53.2495C52.7695 48.9 52.4295 48.76 52.2295 48.48C52.0695 48.2 52.1295 47.86 52.4095 47.46L60.6295 35.1C60.8695 34.74 61.1295 34.54 61.4095 34.5C61.7295 34.46 62.0295 34.64 62.3095 35.04L67.1695 42.42C67.3695 42.74 67.4895 43.06 67.5295 43.38C67.5695 43.66 67.4895 43.96 67.2895 44.28L64.7695 47.94Z" fill="#7F7CF7"/>
<path d="M54.8959 16.436C54.8374 16.6059 54.852 16.7692 54.9298 16.8171C55.0075 16.8651 54.5936 18.2738 54.0078 19.9538C53.422 21.6338 52.9692 23.1557 52.9853 23.3371C53.0015 23.5186 53.7644 24.658 54.6539 25.841C58.124 30.4162 68.9733 45.2186 69.3767 45.8961C69.9582 46.9236 70.6226 47.2304 73.5708 47.8645C74.9955 48.1768 77.2969 48.7038 78.6519 49.0589C81.083 49.6658 81.6989 49.7025 81.8758 49.2112C81.9131 49.0799 82.4729 47.6582 83.0911 46.0668C83.7466 44.344 84.1427 43.0101 84.0487 42.7807C83.9564 42.5694 82.85 40.8752 81.5832 39.0307C80.3164 37.1862 76.3686 31.373 72.8128 26.1103C69.257 20.8477 66.2454 16.4694 66.1417 16.4055C66.0121 16.3256 63.7817 16.3227 61.1655 16.3907C57.8913 16.4989 56.2963 16.4761 56.0127 16.3184C55.4974 16.035 55.0597 16.0739 54.8959 16.436ZM60.927 17.0155C62.5626 16.9433 64.0311 16.9224 64.2078 16.9799C64.4363 17.0693 64.0437 17.8908 62.8288 19.9377C61.8897 21.5028 61.0236 22.787 60.902 22.7978C60.6589 22.8194 56.9199 17.7011 56.8584 17.2858C56.8439 17.1225 57.0109 17.0711 57.4048 17.0909C57.7014 17.1194 59.2915 17.0878 60.927 17.0155ZM57.9268 21.032C58.5784 21.9441 59.1616 22.778 59.5077 23.2768C59.7266 23.5924 59.6503 23.779 59.2703 23.7237C58.7941 23.6544 58.0586 23.5183 57.2256 23.3442C55.7523 23.0362 54.5238 22.7248 54.5157 22.634C54.4883 22.3255 55.8352 18.456 55.9568 18.4452C56.054 18.4366 56.9175 19.6036 57.9268 21.032ZM72.0732 27.1638C75.4605 32.1854 79.1589 37.6732 80.3107 39.3268C81.4625 40.9803 82.4863 42.5721 82.5623 42.8763C82.7355 43.4462 81.3546 47.4833 80.9671 47.5361C80.4825 47.5975 71.084 36.434 64.9326 28.439L63.7395 26.8948C62.5008 25.2918 62.3518 23.0998 63.3622 21.344L63.4118 21.2577C65.2772 17.9823 65.4718 17.6906 65.7343 17.8868C65.838 17.9507 68.6843 22.1241 72.0732 27.1638ZM57.4684 24.1457C58.718 24.4187 59.9725 24.7462 60.3031 24.8814C60.6337 25.0166 61.7743 26.2688 63.1919 28.1548C66.6037 32.6254 72.3535 39.6868 76.3132 44.255C78.1991 46.4469 79.8387 48.3498 79.9229 48.4703C80.0104 48.6272 79.6149 48.5892 78.8353 48.3658C78.1319 48.1723 76.529 47.7844 75.2291 47.4975C73.9293 47.2107 72.5549 46.9122 72.1789 46.8176C71.6019 46.6677 70.3026 45.009 63.1388 35.2748C58.5152 29.0279 54.747 23.8573 54.7406 23.7847C54.7212 23.5669 55.2172 23.6325 57.4684 24.1457Z" fill="white"/>
<path d="M65.8385 10.4501L65.8385 10.4506H65.8483H68.2599V10.4511L68.2697 10.4501C68.3395 10.4433 68.4031 10.4091 68.4486 10.3562C68.4939 10.3034 68.5183 10.2356 68.5183 10.1663C68.5183 10.0969 68.4939 10.0291 68.4486 9.97639C68.4031 9.92349 68.3395 9.88929 68.2697 9.88241L68.2697 9.88193H68.2599H65.8483V9.88145L65.8385 9.88241C65.7687 9.88929 65.7051 9.92349 65.6596 9.97639C65.6143 10.0291 65.5899 10.0969 65.5899 10.1663C65.5899 10.2356 65.6143 10.3034 65.6596 10.3562C65.7051 10.4091 65.7687 10.4433 65.8385 10.4501Z" fill="white" stroke="white" stroke-width="0.2"/>
<path d="M69.4892 6.06189L69.4887 6.06169L69.4858 6.07163C69.2308 6.9404 69.164 7.84261 69.2885 8.73217L69.2886 8.73278C69.294 8.77194 69.3016 8.8263 69.3203 8.87612C69.3397 8.92803 69.3752 8.98621 69.4432 9.01964C69.5037 9.04936 69.5737 9.05703 69.6393 9.04219L69.6393 9.04224L69.6425 9.04139C69.7072 9.02446 69.7658 8.98573 69.8032 8.92903C69.84 8.87344 69.8526 8.806 69.8364 8.7409C69.7042 7.89493 69.7631 7.03466 70.01 6.20789L70.0102 6.20795L70.0117 6.20163C70.0269 6.13546 70.0121 6.06782 69.9733 6.0133C69.935 5.95941 69.8771 5.92326 69.8138 5.90813C69.7506 5.89301 69.6829 5.89902 69.6236 5.92585C69.5641 5.95272 69.5145 6.00003 69.4892 6.06189Z" fill="white" stroke="white" stroke-width="0.2"/>
<path d="M69.13 11.1582L69.1295 11.1581V11.1683V13.5147H69.129L69.13 13.5247C69.137 13.5942 69.1719 13.6568 69.225 13.7012C69.2778 13.7453 69.3452 13.7687 69.4138 13.7687C69.4824 13.7687 69.5499 13.7453 69.6027 13.7012C69.6557 13.6568 69.6906 13.5942 69.6977 13.5247L69.6982 13.5248V13.5147V11.1683H69.6987L69.6977 11.1582C69.6906 11.0887 69.6557 11.0261 69.6027 10.9817C69.5499 10.9376 69.4824 10.9142 69.4138 10.9142C69.3452 10.9142 69.2778 10.9376 69.225 10.9817C69.1719 11.0261 69.137 11.0887 69.13 11.1582Z" fill="white" stroke="white" stroke-width="0.2"/>
<path d="M70.6388 10.4016H73.2034C73.4015 10.4016 73.5321 10.2737 73.5325 10.1174C73.5326 10.0433 73.5019 9.9701 73.4425 9.91636C73.383 9.86238 73.3003 9.83286 73.2034 9.83286H70.6388C70.4403 9.83286 70.3092 9.96047 70.3092 10.1172C70.3092 10.2739 70.4403 10.4016 70.6388 10.4016Z" fill="white" stroke="white" stroke-width="0.2"/>
</svg>
