<svg width="82" height="82" viewBox="0 0 82 82" fill="none" xmlns="http://www.w3.org/2000/svg">
<path d="M2.82067 43.9929C3.00847 44.2694 3.26279 44.4263 3.41408 44.3589C3.56538 44.2916 5.19692 46.4763 7.04668 49.2242C8.89644 51.972 10.6532 54.3411 10.9358 54.5154C11.2183 54.6897 13.682 54.7635 16.3414 54.6902C26.6579 54.3597 59.6416 53.8733 61.0541 53.9949C63.1647 54.2258 64.3064 53.5376 68.3075 49.6861C70.2495 47.8313 73.4198 44.8598 75.3518 43.1595C78.7742 40.0758 79.4698 39.1659 78.9347 38.3538C78.7812 38.152 77.2827 35.728 75.5964 33.0275C73.7567 30.1252 72.216 28.05 71.7821 27.943C71.3765 27.8535 67.7425 27.7004 63.7211 27.6297C59.6997 27.5591 47.0725 27.2675 35.6601 26.9754C24.2476 26.6834 14.6975 26.5226 14.4958 26.6124C14.2436 26.7247 11.9151 30.1619 9.28821 34.272C6.03443 39.4414 4.33886 41.8767 3.81238 42.141C2.86027 42.6248 2.46115 43.3426 2.82067 43.9929ZM9.95465 35.3258C11.5533 32.7237 13.0532 30.4355 13.3215 30.2261C13.6906 29.9718 14.4844 31.4791 16.2158 35.6C17.5291 38.7666 18.5072 41.5123 18.3963 41.7117C18.1746 42.1105 6.78255 42.2595 6.11044 41.8984C5.85612 41.7415 5.95482 41.4275 6.39436 40.8417C6.74522 40.4155 8.35602 37.928 9.95465 35.3258ZM12.7098 44.3628C15.0437 44.3581 17.1284 44.3801 18.1055 44.3946C18.4888 44.4003 18.6243 44.5852 18.3733 44.8807C17.8463 45.5009 16.7202 46.6628 15.3651 47.9824C13.3787 49.9169 11.6423 51.47 11.501 51.3829C11.0206 51.0865 6.7577 44.7613 6.86856 44.5619C6.95726 44.4024 9.56616 44.3515 12.7098 44.3628ZM36.4321 29.2726C47.3159 29.5599 59.2066 29.8792 62.8285 29.9176C66.4504 29.9561 69.8483 30.1242 70.3731 30.3408C71.3882 30.6992 75.8611 37.2611 75.5346 37.9166C75.1194 38.7316 48.9768 40.9745 30.8579 41.6869L24.6995 41.9424C22.6758 42.0264 20.7837 40.8037 19.9399 38.8666L18.7565 36.1497C15.9039 29.6769 15.6795 29.0565 16.2404 28.8669C16.4421 28.7771 25.52 28.9679 36.4321 29.2726ZM16.7919 48.4877C18.494 46.8599 20.2809 45.2843 20.8234 44.9228C21.366 44.5612 24.3884 44.1763 28.6276 44.06C38.7302 43.7047 55.0632 42.5869 65.8797 41.4937C71.0549 40.9908 75.5501 40.5505 75.8145 40.5529C76.1353 40.5901 75.6675 41.1584 74.528 42.1158C73.5116 42.9883 71.273 45.035 69.4983 46.7252C67.7236 48.4154 65.8542 50.2078 65.3238 50.684C64.503 51.4094 60.7198 51.5928 38.9991 51.9577C25.0324 52.2323 13.5334 52.3689 13.4204 52.2991C13.0813 52.0899 13.6943 51.397 16.7919 48.4877Z" fill="white"/>
<path d="M14.8438 28.626L71.0989 29.5513L77.9475 38.9221L20.7048 43.0105L14.8438 28.626Z" fill="#7F7CF7"/>
<path d="M58.3118 16.8122L58.3246 16.8134L58.3376 16.8133L63.8902 16.7752L63.9031 16.7751L63.916 16.7737C64.0859 16.7549 64.2368 16.6665 64.3423 16.5356C64.4472 16.4053 64.5016 16.2405 64.5005 16.074C64.4995 15.9076 64.4431 15.7436 64.3366 15.6147C64.2295 15.4852 64.0775 15.3989 63.9074 15.3824L63.8945 15.3812L63.8816 15.3813L58.3289 15.4194L58.316 15.4195L58.3032 15.4209C58.1333 15.4397 57.9823 15.528 57.8769 15.659C57.772 15.7893 57.7176 15.9541 57.7186 16.1206C57.7196 16.287 57.776 16.451 57.8826 16.5799C57.9896 16.7094 58.1417 16.7957 58.3118 16.8122Z" fill="white" stroke="white" stroke-width="0.5"/>
<path d="M66.6343 6.10718L66.6298 6.11876L66.6266 6.13072C66.0521 8.24295 65.9122 10.4331 66.2132 12.5894C66.2136 12.5926 66.2141 12.5959 66.2145 12.5992C66.2271 12.6897 66.2447 12.8158 66.2865 12.9316C66.3316 13.0563 66.4151 13.1989 66.5792 13.2824C66.7246 13.3564 66.8935 13.3749 67.0516 13.3361L67.0516 13.3363L67.0601 13.3339C67.2158 13.2898 67.3535 13.1912 67.4399 13.0516C67.5242 12.9154 67.5514 12.7527 67.5136 12.5966C67.1963 10.5468 67.3191 8.4592 67.8755 6.45023L67.8775 6.44276L67.8791 6.43518C67.9127 6.27636 67.8785 6.11348 67.7876 5.98076L67.5813 6.12208L67.7876 5.98076C67.6974 5.84894 67.5598 5.75857 67.4068 5.72116C67.2539 5.68378 67.0909 5.70032 66.9489 5.76908C66.8066 5.838 66.6917 5.95677 66.6343 6.10718Z" fill="white" stroke="white" stroke-width="0.5"/>
<path d="M65.8832 18.4708L65.8821 18.4827L65.8822 18.4947L65.9174 24.1839L65.9175 24.1958L65.9187 24.2077C65.9357 24.3744 66.0164 24.5269 66.1423 24.6362C66.2679 24.7453 66.4297 24.804 66.5957 24.8028C66.7617 24.8017 66.9227 24.7408 67.047 24.63C67.1715 24.5189 67.2503 24.3653 67.2653 24.1985L67.2664 24.1866L67.2663 24.1746L67.2311 18.4855L67.231 18.4735L67.2298 18.4616C67.2128 18.295 67.1321 18.1425 67.0062 18.0331C66.8806 17.924 66.7188 17.8653 66.5528 17.8665C66.3868 17.8676 66.2258 17.9285 66.1015 18.0393C65.977 18.1504 65.8982 18.304 65.8832 18.4708Z" fill="white" stroke="white" stroke-width="0.5"/>
<path d="M69.3658 16.6183L75.2708 16.5778C75.5011 16.5762 75.6971 16.5004 75.8371 16.3652C75.9755 16.2317 76.0447 16.0534 76.0439 15.876C76.0432 15.6985 75.9723 15.5208 75.8321 15.3888C75.6903 15.2553 75.493 15.1823 75.2622 15.1839L69.3572 15.2244C69.1265 15.226 68.93 15.3017 68.7897 15.4368C68.6509 15.5706 68.5817 15.7491 68.5828 15.9267C68.5839 16.1043 68.6553 16.2819 68.7957 16.4137C68.9377 16.547 69.1351 16.6199 69.3658 16.6183Z" fill="white" stroke="white" stroke-width="0.5"/>
</svg>
