<svg width="19" height="25" viewBox="0 0 19 25" fill="none" xmlns="http://www.w3.org/2000/svg">
<path d="M9.5 5.68182V9.09091L14.25 4.54545L9.5 0V3.40909C4.25125 3.40909 0 7.47727 0 12.5C0 14.2841 0.54625 15.9432 1.4725 17.3409L3.20625 15.6818C2.67187 14.7386 2.375 13.6477 2.375 12.5C2.375 8.73864 5.56938 5.68182 9.5 5.68182ZM17.5275 7.65909L15.7937 9.31818C16.3162 10.2727 16.625 11.3523 16.625 12.5C16.625 16.2614 13.4306 19.3182 9.5 19.3182V15.9091L4.75 20.4545L9.5 25V21.5909C14.7488 21.5909 19 17.5227 19 12.5C19 10.7159 18.4538 9.05682 17.5275 7.65909Z" fill="#7E7BF5"/>
</svg>
