<svg width="20" height="21" viewBox="0 0 20 21" fill="none" xmlns="http://www.w3.org/2000/svg">
<path d="M1.40553 11.919L1.41839 11.9202L1.43131 11.9201L6.98395 11.882L6.99687 11.8819L7.00971 11.8805C7.17962 11.8617 7.33055 11.7734 7.43601 11.6424C7.54093 11.5121 7.59533 11.3473 7.5943 11.1808C7.59327 11.0144 7.53684 10.8504 7.43031 10.7215C7.32325 10.592 7.17124 10.5057 7.0011 10.4892L6.98825 10.488L6.97533 10.4881L1.42269 10.5262L1.40977 10.5263L1.39693 10.5277C1.22701 10.5465 1.07608 10.6349 0.970629 10.7658C0.865708 10.8961 0.811311 11.0609 0.812341 11.2274C0.81337 11.3938 0.8698 11.5578 0.976324 11.6867C1.08339 11.8162 1.23541 11.9025 1.40553 11.919Z" fill="white" stroke="white" stroke-width="0.5"/>
<path d="M9.728 1.21387L9.72358 1.22545L9.72033 1.23741C9.14586 3.34964 9.00595 5.53983 9.30693 7.69612C9.30738 7.69932 9.30783 7.70256 9.30829 7.70586C9.32089 7.79637 9.33844 7.92249 9.38027 8.03826C9.42532 8.16295 9.50886 8.30558 9.67299 8.38912C9.81838 8.46313 9.98722 8.48162 10.1453 8.44284L10.1453 8.44299L10.1538 8.44059C10.3096 8.39651 10.4472 8.29794 10.5337 8.1583C10.6179 8.02209 10.6452 7.85937 10.6073 7.70333C10.2901 5.65344 10.4129 3.56589 10.9692 1.55692L10.9713 1.54945L10.9729 1.54187C11.0065 1.38305 10.9722 1.22017 10.8814 1.08745C10.7911 0.955632 10.6536 0.865259 10.5006 0.827846C10.3477 0.790472 10.1847 0.807011 10.0427 0.87577C9.90034 0.944693 9.7854 1.06346 9.728 1.21387Z" fill="white" stroke="white" stroke-width="0.5"/>
<path d="M8.97695 13.5775L8.97588 13.5894L8.97595 13.6014L9.01113 19.2905L9.01121 19.3025L9.01243 19.3144C9.02947 19.481 9.11018 19.6335 9.23604 19.7429C9.36167 19.852 9.52344 19.9107 9.68944 19.9095C9.85543 19.9084 10.0165 19.8475 10.1407 19.7367C10.2652 19.6256 10.3441 19.472 10.359 19.3052L10.3601 19.2933L10.36 19.2813L10.3249 13.5922L10.3248 13.5802L10.3236 13.5683C10.3065 13.4017 10.2258 13.2492 10.0999 13.1398C9.97432 13.0307 9.81253 12.972 9.64654 12.9732C9.48054 12.9743 9.31951 13.0352 9.19524 13.146C9.07074 13.2571 8.99193 13.4107 8.97695 13.5775Z" fill="white" stroke="white" stroke-width="0.5"/>
<path d="M12.4596 11.725L18.3646 11.6845C18.5948 11.6829 18.7909 11.607 18.9308 11.4719C19.0692 11.3383 19.1384 11.1601 19.1377 10.9827C19.1369 10.8052 19.0661 10.6275 18.9259 10.4955C18.7841 10.362 18.5867 10.289 18.356 10.2906L12.451 10.3311C12.2202 10.3327 12.0237 10.4083 11.8835 10.5435C11.7447 10.6772 11.6755 10.8558 11.6766 11.0334C11.6777 11.211 11.7491 11.3886 11.8895 11.5204C12.0314 11.6536 12.2288 11.7266 12.4596 11.725Z" fill="white" stroke="white" stroke-width="0.5"/>
</svg>
